# xmcd
#
# Track frame offsets: 
#        150
#        13286
#        32393
#        45702
#        59257
#        93734
#        109179
#        134530
#        156324
#        169581
#
# Disc length: 2426 seconds
#
# Revision: 0
# Processed by: cddbd v1.5.2PL0 Copyright (c) Steve Scherf et al.
# Submitted via: ExactAudioCopyFreeDBPlugin 1.0
#
DISCID=8409780a
DTITLE=Dr. John - An Introduction To Dr, John
DYEAR=2019
DGENRE=Blues
TTITLE0=Right Place Wrong Time
TTITLE1=Iko Iko
TTITLE2=Such A Night
TTITLE3=Mama Roux
TTITLE4=I Walk On Guilded Splinters
TTITLE5=Big Chief
TTITLE6=Gris-Gris Gumbo Ya Ya
TTITLE7=Qualified
TTITLE8=Let's Make A Better World
TTITLE9=(Everybody Wann Get Rich) Rite Away
EXTD=
EXTT0=
EXTT1=
EXTT2=
EXTT3=
EXTT4=
EXTT5=
EXTT6=
EXTT7=
EXTT8=
EXTT9=
PLAYORDER=
